<svg enable-background="new 0 0 128 144.93" viewBox="0 0 128 144.93" xmlns="http://www.w3.org/2000/svg"><g clip-rule="evenodd" fill="#0099da" fill-rule="evenodd"><path d="m78.45 8.73c-.25-1.55-1.71-2.6-3.25-2.36-1.55.25-2.61 1.71-2.36 3.25.25 1.55 1.7 2.6 3.26 2.36 1.54-.24 2.6-1.7 2.35-3.25m-11.01 135.68-.1-123.4.02.01.01-2.28 44.19 25.51-.05 55.82-10.01 5.77-.35-55.57-6.92-3.99v63.75l-9.84 5.67v-75.1l-6.61-3.82.09 90.18 39.94-23c.12-.08.21-.22.21-.38l.07-62.86c0-.16-.09-.3-.22-.38l-39.33-22.45c-.47.15-.95.26-1.45.34-5 .8-9.71-2.61-10.51-7.61s2.61-9.71 7.62-10.51c5-.8 9.7 2.62 10.51 7.62.12.77.14 1.54.07 2.29l39.88 22.78c1.89 1.09 3.34 3.61 3.34 5.79l-.07 67.13c.01 1.09-.36 2.27-.96 3.3-.6 1.04-1.43 1.94-2.38 2.48z"/><path d="m54.88 135.96c.16-1.54-.97-2.92-2.5-3.08-1.54-.16-2.93.96-3.09 2.5s.97 2.92 2.5 3.08c1.54.17 2.92-.95 3.09-2.5m-3.75 8.92c-4.91-.5-8.53-4.78-8.29-9.65l-39.42-22.76c-1.88-1.08-3.34-3.6-3.34-5.77l-.08-67.13c-.01-2.17 1.45-4.69 3.34-5.78l56.87-32.93.44 118.19v-.01l-.08 7.4-10.14-5.85.03-43.32h-23.55v29.75l-10.4-6.01-.06-55.81 10.46-5.88v27.95h23.55l.04-49.3-40.34 23.35c-.13.08-.21.21-.21.38l.06 62.86c0 .16.09.3.22.37l38.38 22.17c1.36-.55 2.86-.79 4.42-.63 5.08.52 8.78 5.08 8.26 10.16-.52 5.07-5.07 8.78-10.16 8.25"/></g></svg>